<?xml version="1.0" encoding="utf-8"?>
<!-- Generator: Adobe Illustrator 23.0.2, SVG Export Plug-In . SVG Version: 6.00 Build 0)  -->
<svg version="1.1" id="Capa_1" xmlns="http://www.w3.org/2000/svg" xmlns:xlink="http://www.w3.org/1999/xlink" x="0px" y="0px"
	 viewBox="0 0 512 512" style="enable-background:new 0 0 512 512;" xml:space="preserve">
<style type="text/css">
	.st0{fill:#FF9800;}
</style>
<g>
	<g>
		<path class="st0" d="M243,74L96,177.2V176c0-8.8-7.2-16-16-16H16c-8.8,0-16,7.2-16,16v256c0,8.8,7.2,16,16,16h64
			c8.8,0,16-7.2,16-16v-0.4c13.4,10.1,29.9,16.4,48,16.4h160c26.5,0,48-21.5,48-48c0-8.6-2.5-16.5-6.4-23.5
			C359,367.9,368,353.1,368,336c0-8.6-2.5-16.5-6.4-23.5C375,303.9,384,289.1,384,272c0-5.6-1.2-11-2.9-16H464c26.5,0,48-21.5,48-48
			s-21.5-48-48-48H288.7l13-10.3c10.2-7.9,16.7-19.3,18.1-32.1c1.5-12.7-2.2-25.4-10.1-35.1c-7.9-10.2-19.3-16.7-32.1-18.1
			C264.7,62.8,252.1,66.5,243,74z M32,416V192h32v32.6V368v48H32z M273.9,96.1c4.1,0.5,7.8,2.6,10.7,6.2c2.7,3.3,3.9,7.4,3.4,11.6
			c-0.5,4.2-2.6,7.8-6.1,10.6l-49,39c-0.2,0.2-0.4,0.5-0.6,0.7c-0.8,0.7-1.4,1.6-2.1,2.5c-0.6,0.8-1.2,1.6-1.6,2.5
			c-0.4,0.9-0.6,1.8-0.9,2.8c-0.3,1.1-0.6,2.1-0.7,3.3c0,0.3-0.2,0.6-0.2,0.9c0,0.7,0.3,1.3,0.4,2c0.2,1.1,0.3,2.2,0.7,3.3
			c0.4,1,0.9,1.9,1.4,2.8c0.4,0.6,0.5,1.3,1,1.9c0.2,0.2,0.5,0.4,0.7,0.6c0.7,0.8,1.6,1.4,2.5,2.1c0.8,0.6,1.6,1.2,2.5,1.7
			c0.8,0.4,1.8,0.6,2.7,0.9c1.1,0.3,2.1,0.6,3.3,0.7c0.3,0,0.5,0.2,0.9,0.2H464c8.8,0,16,7.2,16,16s-7.2,16-16,16H272
			c-8.8,0-16,7.2-16,16s7.2,16,16,16h64c8.8,0,16,7.2,16,16c0,8.8-7.2,16-16,16h-48c-8.8,0-16,7.2-16,16s7.2,16,16,16h32
			c8.8,0,16,7.2,16,16c0,8.8-7.2,16-16,16h-48c-8.8,0-16,7.2-16,16s7.2,16,16,16h32c8.8,0,16,7.2,16,16c0,8.8-7.2,16-16,16H144
			c-26.5,0-48-21.5-48-48V224.6c0-5.2,2.5-10.1,6.8-13.1l159.5-112C265.6,96.8,269.7,95.6,273.9,96.1z"/>
	</g>
</g>
</svg>
