<?xml version="1.0" encoding="utf-8"?>
<!-- Generator: Adobe Illustrator 23.0.2, SVG Export Plug-In . SVG Version: 6.00 Build 0)  -->
<svg version="1.1" id="Capa_1" xmlns="http://www.w3.org/2000/svg" xmlns:xlink="http://www.w3.org/1999/xlink" x="0px" y="0px"
	 viewBox="0 0 512 512" style="enable-background:new 0 0 512 512;" xml:space="preserve">
<style type="text/css">
	.st0{fill:#FFFFFF;}
</style>
<g>
	<path class="st0" d="M286.9,363.1l-90.3,66.1c-6.7,4.9-16.1,3.4-20.9-3.2c-4.8-6.6-3.5-16,2.8-20.6l17.7-13
		c0.5-0.3,0.8-0.8,0.8-1.4c0.2-1.2-0.6-2.2-1.8-2.4c-0.6-0.1-1.2,0.1-1.6,0.4l-17.7,13c-4,2.9-6.5,7.3-7.2,12.3
		c-0.7,5.1,0.5,10.1,3.5,14.2c3.1,4.3,7.7,6.9,12.6,7.6c4.9,0.8,10-0.3,14.3-3.5l90.3-66.1c0.9-0.7,1.1-2,0.5-3
		C289.2,362.6,287.9,362.4,286.9,363.1L286.9,363.1z"/>
	<path class="st0" d="M264.6,358.2l-12.4,9.1c-0.9,0.7-1.1,2-0.5,3c0.3,0.5,0.8,0.8,1.4,0.8c0.5,0.1,1.1,0,1.6-0.4l12.4-9.1
		c0.9-0.7,1.1-2,0.5-3C266.8,357.8,265.5,357.5,264.6,358.2L264.6,358.2z"/>
	<path class="st0" d="M244.8,372.7l-3.2,2.4c-0.9,0.7-1.1,2-0.5,3c0.3,0.5,0.8,0.8,1.4,0.8c0.5,0.1,1.1,0,1.6-0.4l3.2-2.4
		c0.9-0.7,1.1-2,0.5-3C247.1,372.2,245.7,372,244.8,372.7L244.8,372.7z"/>
	<path class="st0" d="M325.2,343L300,308.4c-0.3-0.5-0.8-0.8-1.4-0.8c-0.6-0.1-1.1,0.1-1.6,0.4l-14.7,10.8c-0.9,0.7-1.1,2-0.5,3
		l1.3,1.7L201.7,383c-0.5,0.3-0.8,0.8-0.9,1.4c-0.2,1.2,0.6,2.2,1.8,2.4c0.6,0.1,1.1-0.1,1.6-0.4l81.5-59.6l3.2,4.4l-5.7,4.1
		c-0.9,0.7-1.1,2-0.5,3l3.1,4.3l-11.5,8.4l-4.1-5.7c-0.7-0.9-2-1.1-3-0.5l-39.1,28.6c-0.5,0.3-0.8,0.8-0.8,1.4
		c-0.1,0.6,0.1,1.1,0.4,1.6l4.1,5.7l-33,24.2c-1-0.8-2.3-1.4-3.6-1.6c-2.1-0.3-4.1,0.2-5.8,1.4l-8.1,5.9c-1.7,1.2-2.8,3-3.1,5.1
		c-0.3,2.1,0.2,4.1,1.4,5.8c1.2,1.7,3,2.8,5.1,3.1c2.1,0.3,4.1-0.2,5.8-1.4l8.1-5.9c1.7-1.2,2.8-3,3.1-5.1c0.2-1.3,0.1-2.7-0.4-3.9
		l33-24.2l4.1,5.7c0.3,0.5,0.8,0.8,1.4,0.8c0.5,0.1,1.1,0,1.6-0.4l39.1-28.6c0.5-0.3,0.8-0.8,0.8-1.4s-0.1-1.1-0.4-1.6l-4.1-5.7
		l11.5-8.4l3.1,4.3c0.3,0.5,0.8,0.8,1.4,0.8c0.5,0.1,1.1,0,1.6-0.4l5.7-4.1l3.2,4.4l-8.5,6.2c-0.9,0.7-1.1,2-0.5,3
		c0.7,0.9,2,1.1,3,0.5l8.5-6.2l1.3,1.7c0.3,0.5,0.8,0.8,1.4,0.8c0.6,0.1,1.1-0.1,1.6-0.4l14.7-10.8
		C325.7,345.2,325.9,343.9,325.2,343L325.2,343z M196.1,415.4l-8.1,5.9c-0.8,0.6-1.7,0.8-2.7,0.6c-0.9-0.1-1.8-0.7-2.3-1.4l0,0
		c-0.6-0.8-0.8-1.7-0.6-2.7c0.1-0.9,0.7-1.8,1.4-2.3l8.1-5.9c0.8-0.6,1.7-0.8,2.7-0.6c0.9,0.1,1.8,0.7,2.3,1.4c0,0,0,0,0,0
		c0,0,0,0,0,0c0.6,0.8,0.8,1.7,0.6,2.7C197.4,414,196.9,414.9,196.1,415.4z M240.6,387.1l-8.3-11.3l35.7-26.1l4.1,5.6c0,0,0,0,0,0
		c0,0,0,0,0,0l4.1,5.6L240.6,387.1z M301.4,341.2l-6.9-9.5l11.3-8.3l6.9,9.5L301.4,341.2z M297.8,312.7l5.4,7.4l-11.3,8.3l-5.4-7.4
		L297.8,312.7z M293.7,346.1l-6.3-8.5l3.9-2.9l6.3,8.5L293.7,346.1z M309.3,352l-5.4-7.4l11.3-8.3l5.4,7.4L309.3,352z"/>
</g>
<g>
	<path class="st0" d="M430.8,436.4L430.8,436.4l-14.2-23.3c2.8-2.9,4.9-6.3,6.2-10c2.3-6.9,1.4-14.4-2.5-21.2l-12.2-21
		c-2.1-3.6-6.7-4.8-10.2-2.7c-3.6,2.1-4.8,6.7-2.7,10.2l12.2,21c1.8,3.1,2.3,6.2,1.3,9c-0.9,2.6-2.9,4.9-5.5,6.5
		c-4.6,2.7-11.4,3.2-15.6-4l-98.9-171c7.1-3.1,13.5-7.6,18.8-13.1l27.6,47.7c0,0.1,0.1,0.1,0.1,0.2c0,0.1,0.1,0.1,0.1,0.2l26.2,45.3
		c1.4,2.4,3.9,3.7,6.5,3.7c1.3,0,2.6-0.3,3.7-1c3.6-2.1,4.8-6.7,2.7-10.2l-22.6-39c48.3-29.8,78-82.6,78-139.6
		c0-4.1-3.4-7.5-7.5-7.5c-4.1,0-7.5,3.4-7.5,7.5c0,51.6-26.8,99.4-70.5,126.6L317,203.3c4.2-8.1,6.6-17.2,6.6-26.9
		c0-17.4-7.7-33-19.9-43.7l-7.1-43.6c-2.4-14.9-12.9-24.9-26-24.9h-10.5c-13.1,0-23.6,10-26,24.9l-7.2,43.6
		c-12.2,10.7-19.9,26.3-19.9,43.7c0,9.7,2.4,18.9,6.6,26.9l-27.3,47.3c-43.7-27.2-70.5-75-70.5-126.6c0-4.1-3.4-7.5-7.5-7.5
		c-4.1,0-7.5,3.4-7.5,7.5c0,56.9,29.7,109.7,78,139.6l-43.7,75.5l-17.4-10l10.2-17.6c1-1.7,1.3-3.8,0.8-5.7
		c-0.5-1.9-1.8-3.6-3.5-4.6L107,290.7c-4.6-2.6-9.9-3.3-15.1-2c-5.2,1.4-9.4,4.7-12.1,9.2l-15.5,26.8c-2.7,4.6-3.3,10-2,15.1
		c1.4,5.1,4.7,9.4,9.3,12.1l18.2,10.5c1.2,0.7,2.5,1,3.7,1c2.6,0,5.1-1.3,6.5-3.7l10.2-17.7l17.4,10l-17.2,29.8
		c-6.9,12-3.8,23.7,3.7,31.2l-14.2,23.3c-2.1,3.5-1,8.1,2.5,10.3c1.2,0.7,2.6,1.1,3.9,1.1c2.5,0,5-1.3,6.4-3.6l14.3-23.6
		c2.3,0.6,4.7,1,7.1,1c8.3,0,16.6-3.9,22.1-13.3l40.6-70.2h0.9c2.1-5.3,4.8-10.4,8-15h-0.3l22.7-39.2c12.1,2.8,24.6,4.2,37.2,4.2
		c12.6,0,25-1.4,37.2-4.2l22.7,39.2h-0.9c3.7,4.5,6.6,9.6,8.8,15h0.7l40.6,70.2c5.4,9.4,13.8,13.3,22.1,13.3c2.4,0,4.8-0.3,7.1-1
		l14.3,23.6c1.4,2.3,3.9,3.6,6.4,3.6c1.3,0,2.7-0.4,3.9-1.1C431.8,444.5,432.9,439.9,430.8,436.4z M101.1,328
		C101.1,328,101,328,101.1,328c-0.1,0.1-0.1,0.1-0.1,0.2l-10.2,17.6L79.1,339c-1.1-0.6-1.9-1.7-2.3-3c-0.3-1.3-0.2-2.6,0.5-3.7
		l15.5-26.8c0.6-1.1,1.7-1.9,3-2.3c0.4-0.1,0.9-0.2,1.3-0.2c0.9,0,1.7,0.2,2.4,0.7c0,0,0,0,0,0l11.7,6.7L101.1,328z M248.9,91.5
		c0.9-5.7,4.4-12.3,11.2-12.3h10.5c6.8,0,10.3,6.6,11.2,12.3l5,30.9c-6.7-2.7-13.9-4.1-21.5-4.1c-7.6,0-14.9,1.5-21.5,4.1
		L248.9,91.5z M265.4,133.2c23.9,0,43.3,19.4,43.3,43.2c0,23.8-19.4,43.2-43.3,43.2c-23.9,0-43.3-19.4-43.3-43.2
		C222,152.6,241.5,133.2,265.4,133.2z M218.2,271.2c0,0.1-0.1,0.2-0.1,0.2l-74.8,129.3c-4.2,7.2-11,6.7-15.6,4
		c-4.6-2.6-8.4-8.3-4.2-15.4l99.9-172.7c5.3,5.5,11.7,10,18.9,13.1L218.2,271.2z M265.4,273.1c-9.9,0-19.7-1-29.3-2.9l21-36.3
		c2.7,0.4,5.5,0.6,8.3,0.6s5.6-0.2,8.3-0.6l21,36.3C285,272.1,275.2,273.1,265.4,273.1z"/>
	<path class="st0" d="M265.4,202.6c14.5,0,26.2-11.8,26.2-26.2c0-14.4-11.8-26.2-26.2-26.2c-14.5,0-26.2,11.7-26.2,26.2
		C239.1,190.9,250.9,202.6,265.4,202.6L265.4,202.6z M265.4,165.2c6.2,0,11.3,5,11.3,11.2c0,6.2-5,11.2-11.3,11.2s-11.3-5-11.3-11.2
		C254.1,170.2,259.1,165.2,265.4,165.2z"/>
	<path class="st0" d="M381.4,328.7c-3.7,1.9-5.2,6.4-3.4,10l0,0c1.3,2.6,3.9,4.1,6.7,4.1c1.1,0,2.3-0.3,3.4-0.8
		c3.7-1.9,5.2-6.4,3.3-10.1C389.6,328.4,385.1,326.9,381.4,328.7L381.4,328.7z"/>
</g>
</svg>
