<?xml version="1.0" encoding="utf-8"?>
<!-- Generator: Adobe Illustrator 23.0.2, SVG Export Plug-In . SVG Version: 6.00 Build 0)  -->
<svg version="1.0" id="Layer_1" xmlns="http://www.w3.org/2000/svg" xmlns:xlink="http://www.w3.org/1999/xlink" x="0px" y="0px"
	 viewBox="0 0 220 170" enable-background="new 0 0 220 170" xml:space="preserve">
<linearGradient id="SVGID_1_" gradientUnits="userSpaceOnUse" x1="3.1691" y1="152.1691" x2="202.1304" y2="27.0737">
	<stop  offset="1.207668e-06" style="stop-color:#FF9800"/>
	<stop  offset="0.2312" style="stop-color:#F78800"/>
	<stop  offset="0.6826" style="stop-color:#E45D00"/>
	<stop  offset="1" style="stop-color:#D43C00"/>
</linearGradient>
<rect fill="url(#SVGID_1_)" width="220" height="170"/>
<g>
	<g>
		
			<image overflow="visible" opacity="0.75" width="132" height="114" xlink:href="F7E29626.png"  transform="matrix(1 0 0 1 42 64)">
		</image>
		<g>
			<radialGradient id="SVGID_2_" cx="105.0869" cy="117.8931" r="46.3695" gradientUnits="userSpaceOnUse">
				<stop  offset="1.087860e-06" style="stop-color:#EAEDEE"/>
				<stop  offset="0.1081" style="stop-color:#DEE6EA"/>
				<stop  offset="0.3017" style="stop-color:#BFD2DE"/>
				<stop  offset="0.5584" style="stop-color:#8DB3CC"/>
				<stop  offset="0.865" style="stop-color:#4988B2"/>
				<stop  offset="1" style="stop-color:#2874A6"/>
			</radialGradient>
			<path fill="url(#SVGID_2_)" d="M71,87.6h-0.2l-14.1,7.6l-2.1-8.3l17.7-9.5h9.3v80.9H71V87.6z"/>
			<radialGradient id="SVGID_3_" cx="105.0869" cy="117.8931" r="46.3695" gradientUnits="userSpaceOnUse">
				<stop  offset="1.087860e-06" style="stop-color:#EAEDEE"/>
				<stop  offset="0.1081" style="stop-color:#DEE6EA"/>
				<stop  offset="0.3017" style="stop-color:#BFD2DE"/>
				<stop  offset="0.5584" style="stop-color:#8DB3CC"/>
				<stop  offset="0.865" style="stop-color:#4988B2"/>
				<stop  offset="1" style="stop-color:#2874A6"/>
			</radialGradient>
			<path fill="url(#SVGID_3_)" d="M155.6,117c0,27.5-10.2,42.7-28.1,42.7c-15.8,0-26.5-14.8-26.8-41.6c0-27.1,11.7-42.1,28.1-42.1
				C145.9,76.1,155.6,91.2,155.6,117z M111.6,118.3c0,21,6.5,33,16.4,33c11.2,0,16.6-13.1,16.6-33.7c0-19.9-5.1-33-16.4-33
				C118.6,84.5,111.6,96.2,111.6,118.3z"/>
		</g>
	</g>
</g>
<g>
	<g>
		<image overflow="visible" opacity="0.75" width="175" height="61" xlink:href="F7E2962A.png"  transform="matrix(1 0 0 1 19 3)">
		</image>
		<g>
			<radialGradient id="SVGID_4_" cx="104.55" cy="31.4797" r="57.4039" gradientUnits="userSpaceOnUse">
				<stop  offset="1.087860e-06" style="stop-color:#EAEDEE"/>
				<stop  offset="0.1081" style="stop-color:#DEE6EA"/>
				<stop  offset="0.3017" style="stop-color:#BFD2DE"/>
				<stop  offset="0.5584" style="stop-color:#8DB3CC"/>
				<stop  offset="0.865" style="stop-color:#4988B2"/>
				<stop  offset="1" style="stop-color:#2874A6"/>
			</radialGradient>
			<path fill="url(#SVGID_4_)" d="M32.7,46.6C27.5,42,26.1,36,26.1,30.8c0-3.6,1.1-9.9,6.2-14.6c3.8-3.5,8.9-5.7,16.8-5.7
				c3.3,0,5.3,0.2,7.7,0.5c2,0.3,3.7,0.7,5.3,0.9c0.6,0.1,0.8,0.3,0.8,0.6c0,0.4-0.2,1.1-0.3,2.9c-0.1,1.8-0.1,4.7-0.2,5.8
				c-0.1,0.8-0.2,1.2-0.6,1.2c-0.4,0-0.5-0.4-0.5-1.2c-0.1-1.7-0.7-3.5-2.1-4.9c-1.8-1.9-5.9-3.3-10.8-3.3c-4.6,0-7.7,1.2-10,3.3
				c-3.9,3.6-4.9,8.6-4.9,13.8c0,12.7,9.6,19,16.8,19c4.7,0,7.6-0.5,9.8-3c0.9-1,1.6-2.6,1.8-3.5c0.2-0.9,0.3-1.1,0.7-1.1
				c0.4,0,0.5,0.4,0.5,0.8c0,0.6-0.6,5.3-1.2,7.1c-0.3,0.9-0.5,1.2-1.4,1.5c-2.1,0.9-6.2,1.2-9.6,1.2C43.7,52.4,37.6,50.8,32.7,46.6
				z"/>
			<radialGradient id="SVGID_5_" cx="104.55" cy="31.4797" r="57.4039" gradientUnits="userSpaceOnUse">
				<stop  offset="1.087860e-06" style="stop-color:#EAEDEE"/>
				<stop  offset="0.1081" style="stop-color:#DEE6EA"/>
				<stop  offset="0.3017" style="stop-color:#BFD2DE"/>
				<stop  offset="0.5584" style="stop-color:#8DB3CC"/>
				<stop  offset="0.865" style="stop-color:#4988B2"/>
				<stop  offset="1" style="stop-color:#2874A6"/>
			</radialGradient>
			<path fill="url(#SVGID_5_)" d="M79.8,38.5c0,5.8,0,8.7,1,9.5c0.8,0.7,2.6,1,6.2,1c2.5,0,4.3-0.1,5.5-1.3c0.6-0.6,1.1-1.9,1.2-2.7
				c0.1-0.4,0.2-0.7,0.5-0.7c0.3,0,0.4,0.5,0.4,1s-0.3,3.9-0.7,5.2c-0.3,1-0.5,1.2-3,1.2c-3.4,0-6.1-0.1-8.4-0.2
				c-2.3-0.1-4.3-0.1-6.2-0.1c-0.5,0-1.5,0.1-2.7,0.1c-1.1,0.1-2.3,0.1-3.3,0.1c-0.6,0-0.9-0.2-0.9-0.5c0-0.2,0.2-0.5,0.7-0.5
				c0.7,0,1.2-0.1,1.7-0.2c1-0.2,1.2-1.1,1.4-2.4c0.2-1.9,0.2-5.5,0.2-9.6v-8c0-6.9,0-8.2-0.1-9.6c-0.1-1.5-0.5-2-2-2.5
				c-0.4-0.1-1-0.2-1.5-0.2c-0.5,0-0.8-0.2-0.8-0.5c0-0.3,0.3-0.4,1-0.4c2.2,0,5.2,0.1,6.5,0.1c1.1,0,5-0.1,6.8-0.1
				c0.7,0,1,0.1,1,0.4c0,0.3-0.3,0.5-0.9,0.5c-0.5,0-1.3,0.1-1.8,0.2c-1.3,0.2-1.7,0.9-1.8,2.5c-0.1,1.4-0.1,2.7-0.1,9.6V38.5z"/>
			<radialGradient id="SVGID_6_" cx="104.55" cy="31.4797" r="57.4039" gradientUnits="userSpaceOnUse">
				<stop  offset="1.087860e-06" style="stop-color:#EAEDEE"/>
				<stop  offset="0.1081" style="stop-color:#DEE6EA"/>
				<stop  offset="0.3017" style="stop-color:#BFD2DE"/>
				<stop  offset="0.5584" style="stop-color:#8DB3CC"/>
				<stop  offset="0.865" style="stop-color:#4988B2"/>
				<stop  offset="1" style="stop-color:#2874A6"/>
			</radialGradient>
			<path fill="url(#SVGID_6_)" d="M105,40.2c-0.3,0-0.3,0.1-0.4,0.3l-2.5,6.1c-0.5,1.1-0.7,2.2-0.7,2.8c0,0.8,0.4,1.3,1.9,1.3h0.7
				c0.6,0,0.7,0.2,0.7,0.5c0,0.4-0.3,0.5-0.7,0.5c-1.5,0-3.7-0.2-5.2-0.2c-0.5,0-3,0.2-5.4,0.2c-0.6,0-0.9-0.1-0.9-0.5
				c0-0.3,0.2-0.5,0.5-0.5c0.4,0,1-0.1,1.4-0.1c2.1-0.3,2.9-1.7,3.9-4l12.3-28.5c0.5-1.3,0.9-1.8,1.4-1.8c0.7,0,0.9,0.4,1.4,1.4
				c1.1,2.5,9,21.1,11.9,27.9c1.8,4.1,3.1,4.7,4,4.9c0.7,0.1,1.2,0.2,1.8,0.2c0.4,0,0.6,0.2,0.6,0.5c0,0.4-0.3,0.5-2,0.5
				c-1.7,0-5.1,0-9-0.1c-0.9-0.1-1.4-0.1-1.4-0.4c0-0.3,0.1-0.4,0.6-0.5c0.3-0.1,0.6-0.5,0.4-1l-3.6-9.1c-0.1-0.3-0.3-0.3-0.5-0.3
				H105z M115,37.7c0.2,0,0.3-0.1,0.2-0.3l-4.4-11.5c-0.1-0.2-0.1-0.4-0.2-0.4c-0.2,0-0.2,0.3-0.3,0.4l-4.5,11.5
				c-0.1,0.2,0,0.3,0.2,0.3H115z"/>
			<radialGradient id="SVGID_7_" cx="104.55" cy="31.4797" r="57.4039" gradientUnits="userSpaceOnUse">
				<stop  offset="1.087860e-06" style="stop-color:#EAEDEE"/>
				<stop  offset="0.1081" style="stop-color:#DEE6EA"/>
				<stop  offset="0.3017" style="stop-color:#BFD2DE"/>
				<stop  offset="0.5584" style="stop-color:#8DB3CC"/>
				<stop  offset="0.865" style="stop-color:#4988B2"/>
				<stop  offset="1" style="stop-color:#2874A6"/>
			</radialGradient>
			<path fill="url(#SVGID_7_)" d="M134.1,51c-0.7-0.3-0.9-0.5-0.9-1.5c0-2.5,0.2-5.3,0.3-6c0-0.7,0.2-1.2,0.6-1.2
				c0.4,0,0.5,0.4,0.5,0.7c0,0.6,0.2,1.5,0.4,2.3c1,3.4,4.5,4.5,7.5,4.5c4.1,0,6.5-2.6,6.5-5.8c0-2-0.5-3.9-4.6-6.4l-2.7-1.6
				c-5.5-3.3-7.4-6.3-7.4-10.3c0-5.5,5.3-9.1,11.8-9.1c3,0,5.4,0.4,6.7,0.7c0.4,0.1,0.6,0.3,0.6,0.6c0,0.6-0.2,1.9-0.2,5.4
				c0,1-0.2,1.4-0.6,1.4c-0.3,0-0.5-0.3-0.5-0.8c0-0.4-0.2-1.8-1.2-3c-0.7-0.9-2.2-2.1-5.2-2.1c-3.4,0-6.4,1.8-6.4,4.9
				c0,2,0.7,3.6,5,6l1.9,1.1c6.2,3.4,8.1,6.9,8.1,11c0,3.4-1.3,6.1-4.7,8.5c-2.2,1.6-5.3,1.9-7.8,1.9C139,52.2,136.1,52,134.1,51z"
				/>
			<radialGradient id="SVGID_8_" cx="104.55" cy="31.4797" r="57.4039" gradientUnits="userSpaceOnUse">
				<stop  offset="1.087860e-06" style="stop-color:#EAEDEE"/>
				<stop  offset="0.1081" style="stop-color:#DEE6EA"/>
				<stop  offset="0.3017" style="stop-color:#BFD2DE"/>
				<stop  offset="0.5584" style="stop-color:#8DB3CC"/>
				<stop  offset="0.865" style="stop-color:#4988B2"/>
				<stop  offset="1" style="stop-color:#2874A6"/>
			</radialGradient>
			<path fill="url(#SVGID_8_)" d="M162.8,51c-0.7-0.3-0.9-0.5-0.9-1.5c0-2.5,0.2-5.3,0.3-6c0-0.7,0.2-1.2,0.6-1.2
				c0.4,0,0.5,0.4,0.5,0.7c0,0.6,0.2,1.5,0.4,2.3c1,3.4,4.5,4.5,7.5,4.5c4.1,0,6.5-2.6,6.5-5.8c0-2-0.5-3.9-4.6-6.4l-2.7-1.6
				c-5.5-3.3-7.4-6.3-7.4-10.3c0-5.5,5.3-9.1,11.8-9.1c3,0,5.4,0.4,6.7,0.7c0.4,0.1,0.6,0.3,0.6,0.6c0,0.6-0.2,1.9-0.2,5.4
				c0,1-0.2,1.4-0.6,1.4c-0.3,0-0.5-0.3-0.5-0.8c0-0.4-0.2-1.8-1.2-3c-0.7-0.9-2.2-2.1-5.2-2.1c-3.4,0-6.4,1.8-6.4,4.9
				c0,2,0.7,3.6,5,6l1.9,1.1c6.2,3.4,8.1,6.9,8.1,11c0,3.4-1.3,6.1-4.7,8.5c-2.2,1.6-5.3,1.9-7.8,1.9C167.7,52.2,164.9,52,162.8,51z
				"/>
		</g>
	</g>
</g>
</svg>
