<?xml version="1.0" encoding="utf-8"?>
<!-- Generator: Adobe Illustrator 23.0.2, SVG Export Plug-In . SVG Version: 6.00 Build 0)  -->
<svg version="1.0" id="Layer_1" xmlns="http://www.w3.org/2000/svg" xmlns:xlink="http://www.w3.org/1999/xlink" x="0px" y="0px"
	 viewBox="0 0 220 170" enable-background="new 0 0 220 170" xml:space="preserve">
<linearGradient id="SVGID_1_" gradientUnits="userSpaceOnUse" x1="3.1691" y1="152.1691" x2="202.1304" y2="27.0737">
	<stop  offset="1.207668e-06" style="stop-color:#FF9800"/>
	<stop  offset="0.2312" style="stop-color:#F78800"/>
	<stop  offset="0.6826" style="stop-color:#E45D00"/>
	<stop  offset="1" style="stop-color:#D43C00"/>
</linearGradient>
<rect fill="url(#SVGID_1_)" width="220" height="170"/>
<g>
	<g>
		
			<image overflow="visible" opacity="0.75" width="130" height="113" xlink:href="D7776238.png"  transform="matrix(1 0 0 1 45 60)">
		</image>
		<g>
			<radialGradient id="SVGID_2_" cx="107.0508" cy="113.4219" r="45.4841" gradientUnits="userSpaceOnUse">
				<stop  offset="1.087860e-06" style="stop-color:#EAEDEE"/>
				<stop  offset="0.1081" style="stop-color:#DEE6EA"/>
				<stop  offset="0.3017" style="stop-color:#BFD2DE"/>
				<stop  offset="0.5584" style="stop-color:#8DB3CC"/>
				<stop  offset="0.865" style="stop-color:#4988B2"/>
				<stop  offset="1" style="stop-color:#2874A6"/>
			</radialGradient>
			<path fill="url(#SVGID_2_)" d="M74.1,83.8h-0.2l-14.1,7.6l-2.1-8.3l17.7-9.5h9.3v80.9H74.1V83.8z"/>
			<radialGradient id="SVGID_3_" cx="107.0508" cy="113.4219" r="45.4841" gradientUnits="userSpaceOnUse">
				<stop  offset="1.087860e-06" style="stop-color:#EAEDEE"/>
				<stop  offset="0.1081" style="stop-color:#DEE6EA"/>
				<stop  offset="0.3017" style="stop-color:#BFD2DE"/>
				<stop  offset="0.5584" style="stop-color:#8DB3CC"/>
				<stop  offset="0.865" style="stop-color:#4988B2"/>
				<stop  offset="1" style="stop-color:#2874A6"/>
			</radialGradient>
			<path fill="url(#SVGID_3_)" d="M104.8,154.6v-6.7l8.6-8.3c20.7-19.7,30-30.1,30.1-42.3c0-8.2-4-15.8-16.1-15.8
				c-7.3,0-13.4,3.7-17.2,6.8l-3.5-7.7c5.6-4.7,13.6-8.2,22.9-8.2c17.4,0,24.8,12,24.8,23.5c0,14.9-10.8,27-27.9,43.5l-6.5,6v0.3
				h36.4v9.1H104.8z"/>
		</g>
	</g>
</g>
<g>
	<g>
		<image overflow="visible" opacity="0.75" width="175" height="61" xlink:href="D7776239.png"  transform="matrix(1 0 0 1 24 4)">
		</image>
		<g>
			<radialGradient id="SVGID_4_" cx="109.55" cy="32.4797" r="57.4039" gradientUnits="userSpaceOnUse">
				<stop  offset="1.087860e-06" style="stop-color:#EAEDEE"/>
				<stop  offset="0.1081" style="stop-color:#DEE6EA"/>
				<stop  offset="0.3017" style="stop-color:#BFD2DE"/>
				<stop  offset="0.5584" style="stop-color:#8DB3CC"/>
				<stop  offset="0.865" style="stop-color:#4988B2"/>
				<stop  offset="1" style="stop-color:#2874A6"/>
			</radialGradient>
			<path fill="url(#SVGID_4_)" d="M37.7,47.6C32.5,43,31.1,37,31.1,31.8c0-3.6,1.1-9.9,6.2-14.6c3.8-3.5,8.9-5.7,16.8-5.7
				c3.3,0,5.3,0.2,7.7,0.5c2,0.3,3.7,0.7,5.3,0.9c0.6,0.1,0.8,0.3,0.8,0.6c0,0.4-0.2,1.1-0.3,2.9c-0.1,1.8-0.1,4.7-0.2,5.8
				c-0.1,0.8-0.2,1.2-0.6,1.2c-0.4,0-0.5-0.4-0.5-1.2c-0.1-1.7-0.7-3.5-2.1-4.9c-1.8-1.9-5.9-3.3-10.8-3.3c-4.6,0-7.7,1.2-10,3.3
				c-3.9,3.6-4.9,8.6-4.9,13.8c0,12.7,9.6,19,16.8,19c4.7,0,7.6-0.5,9.8-3c0.9-1,1.6-2.6,1.8-3.5c0.2-0.9,0.3-1.1,0.7-1.1
				c0.4,0,0.5,0.4,0.5,0.8c0,0.6-0.6,5.3-1.2,7.1c-0.3,0.9-0.5,1.2-1.4,1.5c-2.1,0.9-6.2,1.2-9.6,1.2C48.7,53.4,42.6,51.8,37.7,47.6
				z"/>
			<radialGradient id="SVGID_5_" cx="109.55" cy="32.4797" r="57.4039" gradientUnits="userSpaceOnUse">
				<stop  offset="1.087860e-06" style="stop-color:#EAEDEE"/>
				<stop  offset="0.1081" style="stop-color:#DEE6EA"/>
				<stop  offset="0.3017" style="stop-color:#BFD2DE"/>
				<stop  offset="0.5584" style="stop-color:#8DB3CC"/>
				<stop  offset="0.865" style="stop-color:#4988B2"/>
				<stop  offset="1" style="stop-color:#2874A6"/>
			</radialGradient>
			<path fill="url(#SVGID_5_)" d="M84.8,39.5c0,5.8,0,8.7,1,9.5c0.8,0.7,2.6,1,6.2,1c2.5,0,4.3-0.1,5.5-1.3c0.6-0.6,1.1-1.9,1.2-2.7
				c0.1-0.4,0.2-0.7,0.5-0.7c0.3,0,0.4,0.5,0.4,1s-0.3,3.9-0.7,5.2c-0.3,1-0.5,1.2-3,1.2c-3.4,0-6.1-0.1-8.4-0.2
				c-2.3-0.1-4.3-0.1-6.2-0.1c-0.5,0-1.5,0.1-2.7,0.1c-1.1,0.1-2.3,0.1-3.3,0.1c-0.6,0-0.9-0.2-0.9-0.5c0-0.2,0.2-0.5,0.7-0.5
				c0.7,0,1.2-0.1,1.7-0.2c1-0.2,1.2-1.1,1.4-2.4c0.2-1.9,0.2-5.5,0.2-9.6v-8c0-6.9,0-8.2-0.1-9.6c-0.1-1.5-0.5-2-2-2.5
				c-0.4-0.1-1-0.2-1.5-0.2c-0.5,0-0.8-0.2-0.8-0.5c0-0.3,0.3-0.4,1-0.4c2.2,0,5.2,0.1,6.5,0.1c1.1,0,5-0.1,6.8-0.1
				c0.7,0,1,0.1,1,0.4c0,0.3-0.3,0.5-0.9,0.5c-0.5,0-1.3,0.1-1.8,0.2c-1.3,0.2-1.7,0.9-1.8,2.5c-0.1,1.4-0.1,2.7-0.1,9.6V39.5z"/>
			<radialGradient id="SVGID_6_" cx="109.55" cy="32.4797" r="57.4039" gradientUnits="userSpaceOnUse">
				<stop  offset="1.087860e-06" style="stop-color:#EAEDEE"/>
				<stop  offset="0.1081" style="stop-color:#DEE6EA"/>
				<stop  offset="0.3017" style="stop-color:#BFD2DE"/>
				<stop  offset="0.5584" style="stop-color:#8DB3CC"/>
				<stop  offset="0.865" style="stop-color:#4988B2"/>
				<stop  offset="1" style="stop-color:#2874A6"/>
			</radialGradient>
			<path fill="url(#SVGID_6_)" d="M110,41.2c-0.3,0-0.3,0.1-0.4,0.3l-2.5,6.1c-0.5,1.1-0.7,2.2-0.7,2.8c0,0.8,0.4,1.3,1.9,1.3h0.7
				c0.6,0,0.7,0.2,0.7,0.5c0,0.4-0.3,0.5-0.7,0.5c-1.5,0-3.7-0.2-5.2-0.2c-0.5,0-3,0.2-5.4,0.2c-0.6,0-0.9-0.1-0.9-0.5
				c0-0.3,0.2-0.5,0.5-0.5c0.4,0,1-0.1,1.4-0.1c2.1-0.3,2.9-1.7,3.9-4l12.3-28.5c0.5-1.3,0.9-1.8,1.4-1.8c0.7,0,0.9,0.4,1.4,1.4
				c1.1,2.5,9,21.1,11.9,27.9c1.8,4.1,3.1,4.7,4,4.9c0.7,0.1,1.2,0.2,1.8,0.2c0.4,0,0.6,0.2,0.6,0.5c0,0.4-0.3,0.5-2,0.5
				c-1.7,0-5.1,0-9-0.1c-0.9-0.1-1.4-0.1-1.4-0.4c0-0.3,0.1-0.4,0.6-0.5c0.3-0.1,0.6-0.5,0.4-1l-3.6-9.1c-0.1-0.3-0.3-0.3-0.5-0.3
				H110z M120,38.7c0.2,0,0.3-0.1,0.2-0.3l-4.4-11.5c-0.1-0.2-0.1-0.4-0.2-0.4c-0.2,0-0.2,0.3-0.3,0.4l-4.5,11.5
				c-0.1,0.2,0,0.3,0.2,0.3H120z"/>
			<radialGradient id="SVGID_7_" cx="109.55" cy="32.4797" r="57.4039" gradientUnits="userSpaceOnUse">
				<stop  offset="1.087860e-06" style="stop-color:#EAEDEE"/>
				<stop  offset="0.1081" style="stop-color:#DEE6EA"/>
				<stop  offset="0.3017" style="stop-color:#BFD2DE"/>
				<stop  offset="0.5584" style="stop-color:#8DB3CC"/>
				<stop  offset="0.865" style="stop-color:#4988B2"/>
				<stop  offset="1" style="stop-color:#2874A6"/>
			</radialGradient>
			<path fill="url(#SVGID_7_)" d="M139.1,52c-0.7-0.3-0.9-0.5-0.9-1.5c0-2.5,0.2-5.3,0.3-6c0-0.7,0.2-1.2,0.6-1.2
				c0.4,0,0.5,0.4,0.5,0.7c0,0.6,0.2,1.5,0.4,2.3c1,3.4,4.5,4.5,7.5,4.5c4.1,0,6.5-2.6,6.5-5.8c0-2-0.5-3.9-4.6-6.4l-2.7-1.6
				c-5.5-3.3-7.4-6.3-7.4-10.3c0-5.5,5.3-9.1,11.8-9.1c3,0,5.4,0.4,6.7,0.7c0.4,0.1,0.6,0.3,0.6,0.6c0,0.6-0.2,1.9-0.2,5.4
				c0,1-0.2,1.4-0.6,1.4c-0.3,0-0.5-0.3-0.5-0.8c0-0.4-0.2-1.8-1.2-3c-0.7-0.9-2.2-2.1-5.2-2.1c-3.4,0-6.4,1.8-6.4,4.9
				c0,2,0.7,3.6,5,6l1.9,1.1c6.2,3.4,8.1,6.9,8.1,11c0,3.4-1.3,6.1-4.7,8.5c-2.2,1.6-5.3,1.9-7.8,1.9C144,53.2,141.1,53,139.1,52z"
				/>
			<radialGradient id="SVGID_8_" cx="109.55" cy="32.4797" r="57.4039" gradientUnits="userSpaceOnUse">
				<stop  offset="1.087860e-06" style="stop-color:#EAEDEE"/>
				<stop  offset="0.1081" style="stop-color:#DEE6EA"/>
				<stop  offset="0.3017" style="stop-color:#BFD2DE"/>
				<stop  offset="0.5584" style="stop-color:#8DB3CC"/>
				<stop  offset="0.865" style="stop-color:#4988B2"/>
				<stop  offset="1" style="stop-color:#2874A6"/>
			</radialGradient>
			<path fill="url(#SVGID_8_)" d="M167.8,52c-0.7-0.3-0.9-0.5-0.9-1.5c0-2.5,0.2-5.3,0.3-6c0-0.7,0.2-1.2,0.6-1.2
				c0.4,0,0.5,0.4,0.5,0.7c0,0.6,0.2,1.5,0.4,2.3c1,3.4,4.5,4.5,7.5,4.5c4.1,0,6.5-2.6,6.5-5.8c0-2-0.5-3.9-4.6-6.4l-2.7-1.6
				c-5.5-3.3-7.4-6.3-7.4-10.3c0-5.5,5.3-9.1,11.8-9.1c3,0,5.4,0.4,6.7,0.7c0.4,0.1,0.6,0.3,0.6,0.6c0,0.6-0.2,1.9-0.2,5.4
				c0,1-0.2,1.4-0.6,1.4c-0.3,0-0.5-0.3-0.5-0.8c0-0.4-0.2-1.8-1.2-3c-0.7-0.9-2.2-2.1-5.2-2.1c-3.4,0-6.4,1.8-6.4,4.9
				c0,2,0.7,3.6,5,6l1.9,1.1c6.2,3.4,8.1,6.9,8.1,11c0,3.4-1.3,6.1-4.7,8.5c-2.2,1.6-5.3,1.9-7.8,1.9C172.7,53.2,169.9,53,167.8,52z
				"/>
		</g>
	</g>
</g>
</svg>
