<?xml version="1.0" encoding="utf-8"?>
<!-- Generator: Adobe Illustrator 23.0.2, SVG Export Plug-In . SVG Version: 6.00 Build 0)  -->
<svg version="1.0" id="Layer_1" xmlns="http://www.w3.org/2000/svg" xmlns:xlink="http://www.w3.org/1999/xlink" x="0px" y="0px"
	 viewBox="0 0 220 170" enable-background="new 0 0 220 170" xml:space="preserve">
<g>
	<linearGradient id="SVGID_1_" gradientUnits="userSpaceOnUse" x1="3.1691" y1="152.1691" x2="202.1304" y2="27.0737">
		<stop  offset="9.680513e-07" style="stop-color:#2874A6"/>
		<stop  offset="0.241" style="stop-color:#2671A6"/>
		<stop  offset="0.4462" style="stop-color:#2266A6"/>
		<stop  offset="0.6382" style="stop-color:#1A55A6"/>
		<stop  offset="0.821" style="stop-color:#0F3CA6"/>
		<stop  offset="0.9978" style="stop-color:#001CA6"/>
		<stop  offset="1" style="stop-color:#001CA6"/>
	</linearGradient>
	<rect fill="url(#SVGID_1_)" width="220" height="170"/>
</g>
<g>
	<g>
		<image overflow="visible" opacity="0.75" width="85" height="115" xlink:href="7B488C44.png"  transform="matrix(1 0 0 1 74 59)">
		</image>
		<g>
			<radialGradient id="SVGID_2_" cx="113.2673" cy="113.3578" r="35.2678" gradientUnits="userSpaceOnUse">
				<stop  offset="1.087860e-06" style="stop-color:#EAEDEE"/>
				<stop  offset="9.198578e-02" style="stop-color:#EBE9E2"/>
				<stop  offset="0.2568" style="stop-color:#EEDEC3"/>
				<stop  offset="0.4754" style="stop-color:#F2CC91"/>
				<stop  offset="0.7377" style="stop-color:#F8B34C"/>
				<stop  offset="1" style="stop-color:#FF9800"/>
			</radialGradient>
			<path fill="url(#SVGID_2_)" d="M92.9,146.1c2.4,0.3,5.1,0,8.8-0.4c6.4-0.9,12.3-3.5,16.9-7.8c5.4-4.9,9.2-12,10.7-21.5H129
				c-4.5,5.5-11,8.7-19.1,8.7c-14.6,0-23.9-11-23.9-24.8c0-15.3,11.1-28.8,27.6-28.8c16.6,0,26.8,13.4,26.8,34.1
				c0,17.8-6,30.3-13.9,38c-6.2,6.1-14.8,9.8-23.5,10.8c-4,0.6-7.5,0.7-10.1,0.6V146.1z M96.9,99.6c0,10.1,6.1,17.2,15.6,17.2
				c7.3,0,13.1-3.6,15.9-8.5c0.6-1,1-2.2,1-4c0-13.8-5.1-24.4-16.6-24.4C103.5,79.9,96.9,88.1,96.9,99.6z"/>
		</g>
	</g>
</g>
<g>
	<g>
		<image overflow="visible" opacity="0.75" width="176" height="61" xlink:href="7B488C45.png"  transform="matrix(1 0 0 1 22 4)">
		</image>
		<g>
			<radialGradient id="SVGID_3_" cx="107.9465" cy="32.6536" r="57.4045" gradientUnits="userSpaceOnUse">
				<stop  offset="1.087860e-06" style="stop-color:#EAEDEE"/>
				<stop  offset="9.198578e-02" style="stop-color:#EBE9E2"/>
				<stop  offset="0.2568" style="stop-color:#EEDEC3"/>
				<stop  offset="0.4754" style="stop-color:#F2CC91"/>
				<stop  offset="0.7377" style="stop-color:#F8B34C"/>
				<stop  offset="1" style="stop-color:#FF9800"/>
			</radialGradient>
			<path fill="url(#SVGID_3_)" d="M36.1,47.7c-5.2-4.6-6.6-10.6-6.6-15.7c0-3.6,1.1-9.9,6.2-14.6c3.8-3.5,8.9-5.7,16.8-5.7
				c3.3,0,5.3,0.2,7.7,0.5c2,0.3,3.7,0.7,5.3,0.9c0.6,0.1,0.8,0.3,0.8,0.6c0,0.4-0.2,1.1-0.3,2.9c-0.1,1.8-0.1,4.7-0.2,5.8
				c-0.1,0.8-0.2,1.2-0.6,1.2c-0.4,0-0.5-0.4-0.5-1.2c-0.1-1.7-0.7-3.5-2.1-4.9c-1.8-1.9-5.9-3.3-10.8-3.3c-4.6,0-7.7,1.2-10,3.3
				C38,21.2,37,26.3,37,31.5c0,12.7,9.6,19,16.8,19c4.7,0,7.6-0.5,9.8-3c0.9-1,1.6-2.6,1.8-3.5c0.2-0.9,0.3-1.1,0.7-1.1
				c0.4,0,0.5,0.4,0.5,0.8c0,0.6-0.6,5.3-1.2,7.1c-0.3,0.9-0.5,1.2-1.4,1.5c-2.1,0.9-6.2,1.2-9.6,1.2C47.1,53.6,41,52,36.1,47.7z"/>
			<radialGradient id="SVGID_4_" cx="107.9465" cy="32.6536" r="57.4045" gradientUnits="userSpaceOnUse">
				<stop  offset="1.087860e-06" style="stop-color:#EAEDEE"/>
				<stop  offset="9.198578e-02" style="stop-color:#EBE9E2"/>
				<stop  offset="0.2568" style="stop-color:#EEDEC3"/>
				<stop  offset="0.4754" style="stop-color:#F2CC91"/>
				<stop  offset="0.7377" style="stop-color:#F8B34C"/>
				<stop  offset="1" style="stop-color:#FF9800"/>
			</radialGradient>
			<path fill="url(#SVGID_4_)" d="M83.2,39.6c0,5.8,0,8.7,1,9.5c0.8,0.7,2.6,1,6.2,1c2.5,0,4.3-0.1,5.5-1.3c0.6-0.6,1.1-1.9,1.2-2.7
				c0.1-0.4,0.2-0.7,0.5-0.7c0.3,0,0.4,0.5,0.4,1s-0.3,3.9-0.7,5.2c-0.3,1-0.5,1.2-3,1.2c-3.4,0-6.1-0.1-8.4-0.2
				c-2.3-0.1-4.3-0.1-6.2-0.1c-0.5,0-1.5,0.1-2.7,0.1c-1.1,0.1-2.3,0.1-3.3,0.1c-0.6,0-0.9-0.2-0.9-0.5c0-0.2,0.2-0.5,0.7-0.5
				c0.7,0,1.2-0.1,1.7-0.2c1-0.2,1.2-1.1,1.4-2.4c0.2-1.9,0.2-5.5,0.2-9.6v-8c0-6.9,0-8.2-0.1-9.6c-0.1-1.5-0.5-2-2-2.5
				c-0.4-0.1-1-0.2-1.5-0.2c-0.5,0-0.8-0.2-0.8-0.5c0-0.3,0.3-0.4,1-0.4c2.2,0,5.2,0.1,6.5,0.1c1.1,0,5-0.1,6.8-0.1
				c0.7,0,1,0.1,1,0.4c0,0.3-0.3,0.5-0.9,0.5c-0.5,0-1.3,0.1-1.8,0.2c-1.3,0.2-1.7,0.9-1.8,2.5c-0.1,1.4-0.1,2.7-0.1,9.6V39.6z"/>
			<radialGradient id="SVGID_5_" cx="107.9465" cy="32.6536" r="57.4045" gradientUnits="userSpaceOnUse">
				<stop  offset="1.087860e-06" style="stop-color:#EAEDEE"/>
				<stop  offset="9.198578e-02" style="stop-color:#EBE9E2"/>
				<stop  offset="0.2568" style="stop-color:#EEDEC3"/>
				<stop  offset="0.4754" style="stop-color:#F2CC91"/>
				<stop  offset="0.7377" style="stop-color:#F8B34C"/>
				<stop  offset="1" style="stop-color:#FF9800"/>
			</radialGradient>
			<path fill="url(#SVGID_5_)" d="M108.3,41.4c-0.3,0-0.3,0.1-0.4,0.3l-2.5,6.1c-0.5,1.1-0.7,2.2-0.7,2.8c0,0.8,0.4,1.3,1.9,1.3h0.7
				c0.6,0,0.7,0.2,0.7,0.5c0,0.4-0.3,0.5-0.7,0.5c-1.5,0-3.7-0.2-5.2-0.2c-0.5,0-3,0.2-5.4,0.2c-0.6,0-0.9-0.1-0.9-0.5
				c0-0.3,0.2-0.5,0.5-0.5c0.4,0,1-0.1,1.4-0.1c2.1-0.3,2.9-1.7,3.9-4l12.3-28.5c0.5-1.3,0.9-1.8,1.4-1.8c0.7,0,0.9,0.4,1.4,1.4
				c1.1,2.5,9,21.1,11.9,27.9c1.8,4.1,3.1,4.7,4,4.9c0.7,0.1,1.2,0.2,1.8,0.2c0.4,0,0.6,0.2,0.6,0.5c0,0.4-0.3,0.5-2,0.5
				c-1.7,0-5.1,0-9-0.1c-0.9-0.1-1.4-0.1-1.4-0.4c0-0.3,0.1-0.4,0.6-0.5c0.3-0.1,0.6-0.5,0.4-1l-3.6-9.1c-0.1-0.3-0.3-0.3-0.5-0.3
				H108.3z M118.4,38.9c0.2,0,0.3-0.1,0.2-0.3l-4.4-11.5c-0.1-0.2-0.1-0.4-0.2-0.4c-0.2,0-0.2,0.3-0.3,0.4l-4.5,11.5
				c-0.1,0.2,0,0.3,0.2,0.3H118.4z"/>
			<radialGradient id="SVGID_6_" cx="107.9465" cy="32.6536" r="57.4045" gradientUnits="userSpaceOnUse">
				<stop  offset="1.087860e-06" style="stop-color:#EAEDEE"/>
				<stop  offset="9.198578e-02" style="stop-color:#EBE9E2"/>
				<stop  offset="0.2568" style="stop-color:#EEDEC3"/>
				<stop  offset="0.4754" style="stop-color:#F2CC91"/>
				<stop  offset="0.7377" style="stop-color:#F8B34C"/>
				<stop  offset="1" style="stop-color:#FF9800"/>
			</radialGradient>
			<path fill="url(#SVGID_6_)" d="M137.5,52.2c-0.7-0.3-0.9-0.5-0.9-1.5c0-2.5,0.2-5.3,0.3-6c0-0.7,0.2-1.2,0.6-1.2
				c0.4,0,0.5,0.4,0.5,0.7c0,0.6,0.2,1.5,0.4,2.3c1,3.4,4.5,4.5,7.5,4.5c4.1,0,6.5-2.6,6.5-5.8c0-2-0.5-3.9-4.6-6.4l-2.7-1.6
				c-5.5-3.3-7.4-6.3-7.4-10.3c0-5.5,5.3-9.1,11.8-9.1c3,0,5.4,0.4,6.7,0.7c0.4,0.1,0.6,0.3,0.6,0.6c0,0.6-0.2,1.9-0.2,5.4
				c0,1-0.2,1.4-0.6,1.4c-0.3,0-0.5-0.3-0.5-0.8c0-0.4-0.2-1.8-1.2-3c-0.7-0.9-2.2-2.1-5.2-2.1c-3.4,0-6.4,1.8-6.4,4.9
				c0,2,0.7,3.6,5,6l1.9,1.1c6.2,3.4,8.1,6.9,8.1,11c0,3.4-1.3,6.1-4.7,8.5c-2.2,1.6-5.3,1.9-7.8,1.9
				C142.4,53.4,139.5,53.1,137.5,52.2z"/>
			<radialGradient id="SVGID_7_" cx="107.9465" cy="32.6536" r="57.4045" gradientUnits="userSpaceOnUse">
				<stop  offset="1.087860e-06" style="stop-color:#EAEDEE"/>
				<stop  offset="9.198578e-02" style="stop-color:#EBE9E2"/>
				<stop  offset="0.2568" style="stop-color:#EEDEC3"/>
				<stop  offset="0.4754" style="stop-color:#F2CC91"/>
				<stop  offset="0.7377" style="stop-color:#F8B34C"/>
				<stop  offset="1" style="stop-color:#FF9800"/>
			</radialGradient>
			<path fill="url(#SVGID_7_)" d="M166.2,52.2c-0.7-0.3-0.9-0.5-0.9-1.5c0-2.5,0.2-5.3,0.3-6c0-0.7,0.2-1.2,0.6-1.2
				c0.4,0,0.5,0.4,0.5,0.7c0,0.6,0.2,1.5,0.4,2.3c1,3.4,4.5,4.5,7.5,4.5c4.1,0,6.5-2.6,6.5-5.8c0-2-0.5-3.9-4.6-6.4l-2.7-1.6
				c-5.5-3.3-7.4-6.3-7.4-10.3c0-5.5,5.3-9.1,11.8-9.1c3,0,5.4,0.4,6.7,0.7c0.4,0.1,0.6,0.3,0.6,0.6c0,0.6-0.2,1.9-0.2,5.4
				c0,1-0.2,1.4-0.6,1.4c-0.3,0-0.5-0.3-0.5-0.8c0-0.4-0.2-1.8-1.2-3c-0.7-0.9-2.2-2.1-5.2-2.1c-3.4,0-6.4,1.8-6.4,4.9
				c0,2,0.7,3.6,5,6l1.9,1.1c6.2,3.4,8.1,6.9,8.1,11c0,3.4-1.3,6.1-4.7,8.5c-2.2,1.6-5.3,1.9-7.8,1.9
				C171.1,53.4,168.3,53.1,166.2,52.2z"/>
		</g>
	</g>
</g>
</svg>
